<svg xmlns="http://www.w3.org/2000/svg" xmlns:xlink="http://www.w3.org/1999/xlink" xml:space="preserve"
  viewBox="0 0 128 128" width="128" height="128">
  <defs>
    <path id="a" d="M70.8 71.9h500v500h-500z" />
  </defs>
  <clipPath id="b">
    <use xlink:href="#a" overflow="visible" />
  </clipPath>
  <path fill="#0052a3"
    d="M440.4 285.8c.8 44.1-19.4 74-25.8 84.4-5.5 9-18.8 26.5-44.3 53.6L230.9 571.9h272.6l-62.9-286.2Zm25.1 146 2.3 10.2a159.2 159.2 0 0 1-149.4 47.5l6.9-7.4a150 150 0 0 0 140.2-50.3M70.8 71.9v500H220l147.6-157-.2-.2a149.6 149.6 0 0 1-86.3 25.8c-60.2 0-113.2-35.7-136.2-80.1l-.2.2L176 466.3h-8.5s-15.5-53.5-28.8-100.2c-10-35.3-16.2-61.5-16.1-84.7.3-79.9 63.1-153.1 146.6-158.5 2.3-.2 9.4-.9 20-.9 64.3 0 262.6 1.5 281.7 1.6V71.9Zm175.6 371.8c12 10.4 30.9 23.4 54.4 31.8l-6.4 6.8a177.2 177.2 0 0 1-64.2-43c5.1 1.7 10.6 3.2 16.2 4.4m80.4-314a162.4 162.4 0 0 1 66.2 36.7c-5.3-1.4-10.7-2.6-16.2-3.4a153.7 153.7 0 0 0-94.6-32.6c-83 0-151 67.7-151 150.9a151 151 0 0 0 150.9 150.9A151 151 0 0 0 433 281.3c0-32.2-12.1-64.4-28.8-87.1 4 1.2 8.8 3.2 14.4 6.5 11.3 17.1 21.7 45 30.7 87.8 9.4 44.9 57.7 260 63 283.3h58.5V131l-244-1.5zm-168 148.1c0-20.2 15.3-33.6 36-33.6 8.1 0 17.3 2.5 22.5 4.7-1.1 2.4-2 5.5-2.3 7.5l-.6.2c-4-4.4-10.4-8.2-19.9-8.2-12 0-25.9 9.8-25.9 29.2 0 18.9 14.1 29 26.8 29 11.3 0 16.8-5.3 21.7-9.4l.4.4-1.4 7.4a37 37 0 0 1-21.7 6.5c-21.2-.1-35.6-13.4-35.6-33.7m49.6 125.7a163.4 163.4 0 0 1-16.9-67.9l9 .1c1 21.1 5.8 47.4 22.3 76-6-2.2-10.5-5.1-14.4-8.2m60.1-93.3-12.5-.4-7-.1h-.8c-5.7 0-14.5.2-20.2.5.4-8.2.8-16.3.8-24.4v-16.1c0-8.1-.4-16.2-.8-24.2a441.2 441.2 0 0 0 39.4 0 27.3 27.3 0 0 0 0 6.4 379 379 0 0 0-29.4-1.2l-.3 23.5c11.1 0 18.2-.5 23.7-.9a21 21 0 0 0 0 6.9c-6.5-.7-21-.8-23.7-.8-.2 3.1 0 23.4.1 25.2 6.9-.1 24.4-.6 30.8-1.2l-.2 3.6c0 1.4-.1 2.2.1 3.2m55.1-.3c-.9 0-4.1 0-5.9.3a272 272 0 0 0-23.7-31.8h-4.8v7.5c0 8.1.4 16.2.8 24.3-1.6-.3-4.5-.3-5.1-.3-.6 0-3.5 0-5.1.3.4-8.1.8-16.2.8-24.3v-16.1c0-8.1-.4-16.2-.8-24.3 3.6.3 8.1.5 11.7.5 3.6 0 7.1-.5 10.7-.5 10.6 0 20.3 3.1 20.3 14.9 0 12.5-12.4 17-19.6 17.9 4.6 5.7 21.1 25.8 26.5 31.9-1.8-.3-5-.3-5.8-.3m71 1.2h-3.1c-3.8-5.1-43.1-46.2-46.6-49.8l-.1 17.7c0 9.3.7 23.6 1.1 31.2-1-.2-2.4-.3-4-.3-1.7 0-3 .2-4.1.3.8-9.9 1-26 1-41.2 0-11.8-.2-18.3-.3-24.3h3.1l46.6 48.5.1-16.6c0-9.3-.7-23.6-1.1-31.2 1 .2 2.4.3 4 .3 1.7 0 3-.1 4.1-.3-.8 9.9-1 26-1 41.2 0 11.8.2 18.5.3 24.5m80.8-83.2a163.3 163.3 0 0 1 33.6 83.6h.3l14.5-150.1h8.2s-9.3 97-14.7 145.3c-6.8 60.4-15.4 85.5-31.9 111.8l-2.5-11.5a153.6 153.6 0 0 0 18.2-52.6c5.2-32.3-2.2-76.4-24.7-110.8a149 149 0 0 0-125.6-66.9c-45.4 0-84.9 20-112.5 51.1l-6.7-5.3a158.4 158.4 0 0 1 119.2-54.2c49.9.1 94.3 22.5 124.6 59.6m-161.9 33.8c0-9.3-8.2-12.3-14.5-12.3-4.3 0-7.1.3-9.1.5-.3 6.9-.6 13.2-.6 19.9v5.2l6.3.1c7.7-.3 17.9-2.7 17.9-13.4"
    clip-path="url(#b)" transform="matrix(.2 0 0 .2 -.2 -.4)" />
</svg>
