<svg xmlns="http://www.w3.org/2000/svg" data-name="Layer 1" viewBox="0 0 68 68" height="68" width="68">
   <path fill="#29a7df"
      d="m62 40.7-3.3-5.5a.8.8 0 0 0-1.3 0l-3.2 5.5a.8.8 0 0 0 0 .8.8.8 0 0 0 .6.4h1.3v6L30.9 62.4 5.7 47.9v-8.6h9l15.2 9a2 2 0 0 0 1 .3 2 2 0 0 0 1-.3l15.8-9.4a2 2 0 0 0 1-1.7 2 2 0 0 0-1-1.7L32 26.4a2 2 0 0 0-2 0l-15.5 9H3.8a2 2 0 0 0-2 2V49a2 2 0 0 0 1 1.7l27.1 15.7a2 2 0 0 0 1 .2 1.9 1.9 0 0 0 1-.2L59 50.7a2 2 0 0 0 1-1.7v-7.1h1.3a.8.8 0 0 0 .7-.4.8.8 0 0 0 0-.8zM31 30.4l11.9 6.9-12 7-12-7z" />
   <path fill="#2c3e50"
      d="M59 16 32 .2a2 2 0 0 0-2 0L2.8 15.9a2 2 0 0 0-1 1.7v6h-1a.7.7 0 0 0-.7.4.8.8 0 0 0 0 .7l3 5.3a.7.7 0 0 0 .6.4.8.8 0 0 0 .7-.4l3-5.3a.8.8 0 0 0 0-.7.7.7 0 0 0-.7-.4h-1v-4.9L31 4.2l25.2 14.5v7.6h-8.7l-15.5-9a2 2 0 0 0-2 0L14 26.5a2 2 0 0 0 0 3.4L30 39.2a2 2 0 0 0 1 .3 2 2 0 0 0 1-.3l15.2-9h11a2 2 0 0 0 2-2V17.6a2 2 0 0 0-1-1.7zM31 35.2l-12-7.1 12-6.9 11.8 6.9z" />
</svg>
